<svg xmlns="http://www.w3.org/2000/svg" xmlns:xlink="http://www.w3.org/1999/xlink"  zoomAndPan="magnify" viewBox="115 589 1241 302"  preserveAspectRatio="xMidYMid meet" version="1.0"><defs><g/><clipPath id="f52cd929da"><rect x="0" width="961" y="0" height="303"/></clipPath><clipPath id="8888626d1b"><path d="M 372 0.160156 L 421 0.160156 L 421 50 L 372 50 Z M 372 0.160156 " clip-rule="nonzero"/></clipPath><clipPath id="6604c7f1e7"><rect x="0" width="619" y="0" height="65"/></clipPath><clipPath id="3f335f48fb"><path d="M 115 589 L 397 589 L 397 891 L 115 891 Z M 115 589 " clip-rule="nonzero"/></clipPath><clipPath id="95fe22e91b"><path d="M 112.703125 592.324219 L 393.140625 586.433594 L 399.4375 886.367188 L 119 892.257812 Z M 112.703125 592.324219 " clip-rule="nonzero"/></clipPath><clipPath id="fbde40c32d"><path d="M 112.703125 592.324219 L 393.140625 586.433594 L 399.4375 886.367188 L 119 892.257812 Z M 112.703125 592.324219 " clip-rule="nonzero"/></clipPath></defs><g transform="matrix(1, 0, 0, 1, 395, 588)"><g clip-path="url(#f52cd929da)"><g fill="#0f172a" fill-opacity="1"><g transform="translate(0.940092, 226.096758)"><g><path d="M 144.796875 -151.71875 L 144.796875 0 L 107.84375 0 L 107.84375 -62.453125 L 50.359375 -62.453125 L 50.359375 0 L 13.40625 0 L 13.40625 -151.71875 L 50.359375 -151.71875 L 50.359375 -92.28125 L 107.84375 -92.28125 L 107.84375 -151.71875 Z M 144.796875 -151.71875 "/></g></g></g><g fill="#0f172a" fill-opacity="1"><g transform="translate(158.919536, 226.096758)"><g><path d="M 50.359375 -151.71875 L 50.359375 0 L 13.40625 0 L 13.40625 -151.71875 Z M 50.359375 -151.71875 "/></g></g></g><g fill="#0f172a" fill-opacity="1"><g transform="translate(222.673202, 226.096758)"><g><path d="M 90.765625 0 L 59.21875 -57.265625 L 50.359375 -57.265625 L 50.359375 0 L 13.40625 0 L 13.40625 -151.71875 L 75.421875 -151.71875 C 87.378906 -151.71875 97.570312 -149.628906 106 -145.453125 C 114.4375 -141.273438 120.742188 -135.546875 124.921875 -128.265625 C 129.097656 -120.992188 131.1875 -112.890625 131.1875 -103.953125 C 131.1875 -93.867188 128.335938 -84.863281 122.640625 -76.9375 C 116.953125 -69.007812 108.5625 -63.390625 97.46875 -60.078125 L 132.484375 0 Z M 50.359375 -83.421875 L 73.265625 -83.421875 C 80.035156 -83.421875 85.113281 -85.078125 88.5 -88.390625 C 91.882812 -91.703125 93.578125 -96.382812 93.578125 -102.4375 C 93.578125 -108.207031 91.882812 -112.75 88.5 -116.0625 C 85.113281 -119.375 80.035156 -121.03125 73.265625 -121.03125 L 50.359375 -121.03125 Z M 50.359375 -83.421875 "/></g></g></g><g fill="#0f172a" fill-opacity="1"><g transform="translate(363.579653, 226.096758)"><g><path d="M 50.359375 -122.109375 L 50.359375 -91.421875 L 99.84375 -91.421875 L 99.84375 -62.890625 L 50.359375 -62.890625 L 50.359375 -29.609375 L 106.328125 -29.609375 L 106.328125 0 L 13.40625 0 L 13.40625 -151.71875 L 106.328125 -151.71875 L 106.328125 -122.109375 Z M 50.359375 -122.109375 "/></g></g></g><g fill="#0f172a" fill-opacity="1"><g transform="translate(480.497386, 226.096758)"><g><path d="M 7.125 -76.078125 C 7.125 -91.054688 10.363281 -104.414062 16.84375 -116.15625 C 23.332031 -127.90625 32.375 -137.054688 43.96875 -143.609375 C 55.570312 -150.171875 68.722656 -153.453125 83.421875 -153.453125 C 101.429688 -153.453125 116.847656 -148.695312 129.671875 -139.1875 C 142.492188 -129.675781 151.066406 -116.707031 155.390625 -100.28125 L 114.765625 -100.28125 C 111.734375 -106.625 107.441406 -111.453125 101.890625 -114.765625 C 96.347656 -118.078125 90.046875 -119.734375 82.984375 -119.734375 C 71.609375 -119.734375 62.390625 -115.769531 55.328125 -107.84375 C 48.265625 -99.914062 44.734375 -89.328125 44.734375 -76.078125 C 44.734375 -62.816406 48.265625 -52.222656 55.328125 -44.296875 C 62.390625 -36.378906 71.609375 -32.421875 82.984375 -32.421875 C 90.046875 -32.421875 96.347656 -34.078125 101.890625 -37.390625 C 107.441406 -40.703125 111.734375 -45.53125 114.765625 -51.875 L 155.390625 -51.875 C 151.066406 -35.445312 142.492188 -22.515625 129.671875 -13.078125 C 116.847656 -3.640625 101.429688 1.078125 83.421875 1.078125 C 68.722656 1.078125 55.570312 -2.195312 43.96875 -8.75 C 32.375 -15.3125 23.332031 -24.425781 16.84375 -36.09375 C 10.363281 -47.757812 7.125 -61.085938 7.125 -76.078125 Z M 7.125 -76.078125 "/></g></g></g><g fill="#0f172a" fill-opacity="1"><g transform="translate(645.176361, 226.096758)"><g><path d="M 50.359375 -151.71875 L 50.359375 0 L 13.40625 0 L 13.40625 -151.71875 Z M 50.359375 -151.71875 "/></g></g></g><g fill="#0f172a" fill-opacity="1"><g transform="translate(708.930045, 226.096758)"><g><path d="M 68.296875 1.515625 C 57.203125 1.515625 47.257812 -0.285156 38.46875 -3.890625 C 29.675781 -7.492188 22.648438 -12.820312 17.390625 -19.875 C 12.140625 -26.9375 9.367188 -35.441406 9.078125 -45.390625 L 48.40625 -45.390625 C 48.988281 -39.765625 50.9375 -35.472656 54.25 -32.515625 C 57.5625 -29.566406 61.882812 -28.09375 67.21875 -28.09375 C 72.6875 -28.09375 77.003906 -29.351562 80.171875 -31.875 C 83.347656 -34.394531 84.9375 -37.890625 84.9375 -42.359375 C 84.9375 -46.109375 83.675781 -49.207031 81.15625 -51.65625 C 78.632812 -54.101562 75.535156 -56.117188 71.859375 -57.703125 C 68.179688 -59.285156 62.957031 -61.085938 56.1875 -63.109375 C 46.394531 -66.128906 38.398438 -69.148438 32.203125 -72.171875 C 26.003906 -75.203125 20.671875 -79.671875 16.203125 -85.578125 C 11.742188 -91.492188 9.515625 -99.203125 9.515625 -108.703125 C 9.515625 -122.828125 14.628906 -133.882812 24.859375 -141.875 C 35.085938 -149.875 48.414062 -153.875 64.84375 -153.875 C 81.550781 -153.875 95.019531 -149.875 105.25 -141.875 C 115.476562 -133.882812 120.953125 -122.757812 121.671875 -108.5 L 81.6875 -108.5 C 81.40625 -113.394531 79.609375 -117.242188 76.296875 -120.046875 C 72.984375 -122.859375 68.734375 -124.265625 63.546875 -124.265625 C 59.078125 -124.265625 55.472656 -123.078125 52.734375 -120.703125 C 49.992188 -118.328125 48.625 -114.90625 48.625 -110.4375 C 48.625 -105.539062 50.925781 -101.722656 55.53125 -98.984375 C 60.144531 -96.242188 67.351562 -93.289062 77.15625 -90.125 C 86.957031 -86.8125 94.914062 -83.640625 101.03125 -80.609375 C 107.15625 -77.585938 112.453125 -73.191406 116.921875 -67.421875 C 121.390625 -61.660156 123.625 -54.242188 123.625 -45.171875 C 123.625 -36.523438 121.425781 -28.671875 117.03125 -21.609375 C 112.632812 -14.546875 106.257812 -8.925781 97.90625 -4.75 C 89.550781 -0.570312 79.679688 1.515625 68.296875 1.515625 Z M 68.296875 1.515625 "/></g></g></g><g fill="#0f172a" fill-opacity="1"><g transform="translate(841.840257, 226.096758)"><g><path d="M 50.359375 -122.109375 L 50.359375 -91.421875 L 99.84375 -91.421875 L 99.84375 -62.890625 L 50.359375 -62.890625 L 50.359375 -29.609375 L 106.328125 -29.609375 L 106.328125 0 L 13.40625 0 L 13.40625 -151.71875 L 106.328125 -151.71875 L 106.328125 -122.109375 Z M 50.359375 -122.109375 "/></g></g></g></g></g><g transform="matrix(1, 0, 0, 1, 507, 842)"><g clip-path="url(#6604c7f1e7)"><g fill="#0f172a" fill-opacity="1"><g transform="translate(0.811836, 47.765553)"><g><path d="M 3.875 0 L 3.875 -45.609375 L 9.25 -45.609375 L 9.25 -26.140625 L 34.484375 -26.140625 L 34.484375 -45.609375 L 39.859375 -45.609375 L 39.859375 0 L 34.484375 0 L 34.484375 -21.359375 L 9.25 -21.359375 L 9.25 0 Z M 3.875 0 "/></g></g></g><g fill="#0f172a" fill-opacity="1"><g transform="translate(46.293738, 47.765553)"><g><path d="M 3.875 0 L 3.875 -45.609375 L 9.25 -45.609375 L 9.25 0 Z M 3.875 0 "/></g></g></g><g fill="#0f172a" fill-opacity="1"><g transform="translate(61.174167, 47.765553)"><g><path d="M 36.875 1.296875 C 35.0625 1.296875 33.628906 0.800781 32.578125 -0.1875 C 31.523438 -1.1875 30.757812 -2.460938 30.28125 -4.015625 L 27.5 -13.59375 C 27.019531 -15.269531 26.164062 -16.632812 24.9375 -17.6875 C 23.707031 -18.75 22.316406 -19.28125 20.765625 -19.28125 L 9.25 -19.28125 L 9.25 0 L 3.875 0 L 3.875 -45.609375 L 24.328125 -45.609375 C 27.472656 -45.609375 30.265625 -45.046875 32.703125 -43.921875 C 35.140625 -42.804688 37.046875 -41.265625 38.421875 -39.296875 C 39.804688 -37.335938 40.5 -35.085938 40.5 -32.546875 C 40.5 -29.398438 39.398438 -26.703125 37.203125 -24.453125 C 35.003906 -22.210938 31.984375 -20.832031 28.140625 -20.3125 L 28.140625 -20.25 C 29.390625 -19.644531 30.40625 -18.8125 31.1875 -17.75 C 31.96875 -16.695312 32.550781 -15.484375 32.9375 -14.109375 L 35.203125 -5.890625 C 35.410156 -5.109375 35.738281 -4.46875 36.1875 -3.96875 C 36.644531 -3.476562 37.222656 -3.234375 37.921875 -3.234375 C 38.648438 -3.234375 39.367188 -3.503906 40.078125 -4.046875 C 40.796875 -4.585938 41.410156 -5.3125 41.921875 -6.21875 L 44.640625 -3.046875 C 43.691406 -1.742188 42.5625 -0.695312 41.25 0.09375 C 39.9375 0.894531 38.476562 1.296875 36.875 1.296875 Z M 9.25 -24.0625 L 24.328125 -24.0625 C 27.515625 -24.0625 30.113281 -24.835938 32.125 -26.390625 C 34.132812 -27.953125 35.140625 -29.960938 35.140625 -32.421875 C 35.140625 -34.878906 34.132812 -36.894531 32.125 -38.46875 C 30.113281 -40.039062 27.515625 -40.828125 24.328125 -40.828125 L 9.25 -40.828125 Z M 9.25 -24.0625 "/></g></g></g><g fill="#0f172a" fill-opacity="1"><g transform="translate(107.561821, 47.765553)"><g><path d="M 3.875 0 L 3.875 -45.609375 L 35.0625 -45.609375 L 35.0625 -40.828125 L 9.125 -40.828125 L 9.125 -25.875 L 32.484375 -25.875 L 32.484375 -21.21875 L 9.125 -21.21875 L 9.125 -4.78125 L 35.71875 -4.78125 L 35.71875 0 Z M 3.875 0 "/></g></g></g><g fill="#0f172a" fill-opacity="1"><g transform="translate(146.63877, 47.765553)"><g/></g></g><g fill="#0f172a" fill-opacity="1"><g transform="translate(165.983254, 47.765553)"><g><path d="M 15.921875 0 L 15.921875 -40.828125 L 0.640625 -40.828125 L 0.640625 -45.609375 L 36.5625 -45.609375 L 36.5625 -40.828125 L 21.28125 -40.828125 L 21.28125 0 Z M 15.921875 0 "/></g></g></g><g fill="#0f172a" fill-opacity="1"><g transform="translate(204.930809, 47.765553)"><g><path d="M 3.875 0 L 3.875 -45.609375 L 9.25 -45.609375 L 9.25 -26.140625 L 34.484375 -26.140625 L 34.484375 -45.609375 L 39.859375 -45.609375 L 39.859375 0 L 34.484375 0 L 34.484375 -21.359375 L 9.25 -21.359375 L 9.25 0 Z M 3.875 0 "/></g></g></g><g fill="#0f172a" fill-opacity="1"><g transform="translate(250.412711, 47.765553)"><g><path d="M 3.875 0 L 3.875 -45.609375 L 35.0625 -45.609375 L 35.0625 -40.828125 L 9.125 -40.828125 L 9.125 -25.875 L 32.484375 -25.875 L 32.484375 -21.21875 L 9.125 -21.21875 L 9.125 -4.78125 L 35.71875 -4.78125 L 35.71875 0 Z M 3.875 0 "/></g></g></g><g fill="#0f172a" fill-opacity="1"><g transform="translate(289.489644, 47.765553)"><g/></g></g><g fill="#0f172a" fill-opacity="1"><g transform="translate(308.834145, 47.765553)"><g><path d="M 36.875 1.296875 C 35.0625 1.296875 33.628906 0.800781 32.578125 -0.1875 C 31.523438 -1.1875 30.757812 -2.460938 30.28125 -4.015625 L 27.5 -13.59375 C 27.019531 -15.269531 26.164062 -16.632812 24.9375 -17.6875 C 23.707031 -18.75 22.316406 -19.28125 20.765625 -19.28125 L 9.25 -19.28125 L 9.25 0 L 3.875 0 L 3.875 -45.609375 L 24.328125 -45.609375 C 27.472656 -45.609375 30.265625 -45.046875 32.703125 -43.921875 C 35.140625 -42.804688 37.046875 -41.265625 38.421875 -39.296875 C 39.804688 -37.335938 40.5 -35.085938 40.5 -32.546875 C 40.5 -29.398438 39.398438 -26.703125 37.203125 -24.453125 C 35.003906 -22.210938 31.984375 -20.832031 28.140625 -20.3125 L 28.140625 -20.25 C 29.390625 -19.644531 30.40625 -18.8125 31.1875 -17.75 C 31.96875 -16.695312 32.550781 -15.484375 32.9375 -14.109375 L 35.203125 -5.890625 C 35.410156 -5.109375 35.738281 -4.46875 36.1875 -3.96875 C 36.644531 -3.476562 37.222656 -3.234375 37.921875 -3.234375 C 38.648438 -3.234375 39.367188 -3.503906 40.078125 -4.046875 C 40.796875 -4.585938 41.410156 -5.3125 41.921875 -6.21875 L 44.640625 -3.046875 C 43.691406 -1.742188 42.5625 -0.695312 41.25 0.09375 C 39.9375 0.894531 38.476562 1.296875 36.875 1.296875 Z M 9.25 -24.0625 L 24.328125 -24.0625 C 27.515625 -24.0625 30.113281 -24.835938 32.125 -26.390625 C 34.132812 -27.953125 35.140625 -29.960938 35.140625 -32.421875 C 35.140625 -34.878906 34.132812 -36.894531 32.125 -38.46875 C 30.113281 -40.039062 27.515625 -40.828125 24.328125 -40.828125 L 9.25 -40.828125 Z M 9.25 -24.0625 "/></g></g></g><g fill="#0f172a" fill-opacity="1"><g transform="translate(355.221799, 47.765553)"><g><path d="M 3.875 0 L 3.875 -45.609375 L 9.25 -45.609375 L 9.25 0 Z M 3.875 0 "/></g></g></g><g clip-path="url(#8888626d1b)"><g fill="#0f172a" fill-opacity="1"><g transform="translate(370.102213, 47.765553)"><g><path d="M 26.015625 1.625 C 22.554688 1.625 19.382812 1.019531 16.5 -0.1875 C 13.613281 -1.394531 11.101562 -3.097656 8.96875 -5.296875 C 6.832031 -7.503906 5.179688 -10.082031 4.015625 -13.03125 C 2.847656 -15.988281 2.265625 -19.238281 2.265625 -22.78125 C 2.265625 -26.3125 2.847656 -29.566406 4.015625 -32.546875 C 5.179688 -35.523438 6.804688 -38.113281 8.890625 -40.3125 C 10.984375 -42.507812 13.453125 -44.210938 16.296875 -45.421875 C 19.148438 -46.628906 22.28125 -47.234375 25.6875 -47.234375 C 28.707031 -47.234375 31.550781 -46.640625 34.21875 -45.453125 C 36.894531 -44.265625 39.210938 -42.632812 41.171875 -40.5625 C 43.140625 -38.5 44.578125 -36.128906 45.484375 -33.453125 L 40.5 -31.828125 C 39.8125 -33.898438 38.722656 -35.734375 37.234375 -37.328125 C 35.742188 -38.929688 34.003906 -40.1875 32.015625 -41.09375 C 30.035156 -42 27.90625 -42.453125 25.625 -42.453125 C 22.125 -42.453125 19.023438 -41.609375 16.328125 -39.921875 C 13.640625 -38.242188 11.519531 -35.925781 9.96875 -32.96875 C 8.414062 -30.007812 7.640625 -26.613281 7.640625 -22.78125 C 7.640625 -19.019531 8.445312 -15.660156 10.0625 -12.703125 C 11.675781 -9.753906 13.90625 -7.425781 16.75 -5.71875 C 19.601562 -4.019531 22.84375 -3.171875 26.46875 -3.171875 C 29.832031 -3.171875 32.867188 -3.925781 35.578125 -5.4375 C 38.296875 -6.945312 40.453125 -8.992188 42.046875 -11.578125 C 43.648438 -14.171875 44.453125 -17.101562 44.453125 -20.375 L 19.09375 -20.375 L 19.09375 -25.171875 L 49.953125 -25.171875 L 49.953125 0 L 45.421875 0 L 44.90625 -8.796875 L 44.84375 -8.796875 C 42.851562 -5.566406 40.238281 -3.019531 37 -1.15625 C 33.769531 0.695312 30.109375 1.625 26.015625 1.625 Z M 26.015625 1.625 "/></g></g></g></g><g fill="#0f172a" fill-opacity="1"><g transform="translate(424.382864, 47.765553)"><g><path d="M 3.875 0 L 3.875 -45.609375 L 9.25 -45.609375 L 9.25 -26.140625 L 34.484375 -26.140625 L 34.484375 -45.609375 L 39.859375 -45.609375 L 39.859375 0 L 34.484375 0 L 34.484375 -21.359375 L 9.25 -21.359375 L 9.25 0 Z M 3.875 0 "/></g></g></g><g fill="#0f172a" fill-opacity="1"><g transform="translate(469.864782, 47.765553)"><g><path d="M 15.921875 0 L 15.921875 -40.828125 L 0.640625 -40.828125 L 0.640625 -45.609375 L 36.5625 -45.609375 L 36.5625 -40.828125 L 21.28125 -40.828125 L 21.28125 0 Z M 15.921875 0 "/></g></g></g><g fill="#0f172a" fill-opacity="1"><g transform="translate(508.812322, 47.765553)"><g/></g></g><g fill="#0f172a" fill-opacity="1"><g transform="translate(528.156822, 47.765553)"><g><path d="M 3.875 0 L 3.875 -45.609375 L 32.671875 -45.609375 L 32.671875 -40.828125 L 9.25 -40.828125 L 9.25 -25.046875 L 28.859375 -25.046875 L 28.859375 -20.453125 L 9.25 -20.453125 L 9.25 0 Z M 3.875 0 "/></g></g></g><g fill="#0f172a" fill-opacity="1"><g transform="translate(563.869518, 47.765553)"><g><path d="M 3.875 0 L 3.875 -45.609375 L 9.25 -45.609375 L 9.25 0 Z M 3.875 0 "/></g></g></g><g fill="#0f172a" fill-opacity="1"><g transform="translate(578.749993, 47.765553)"><g><path d="M 15.921875 0 L 15.921875 -40.828125 L 0.640625 -40.828125 L 0.640625 -45.609375 L 36.5625 -45.609375 L 36.5625 -40.828125 L 21.28125 -40.828125 L 21.28125 0 Z M 15.921875 0 "/></g></g></g></g></g><g clip-path="url(#3f335f48fb)"><g clip-path="url(#95fe22e91b)"><g clip-path="url(#fbde40c32d)"><path fill="#1a56ff" d="M 115.4375 711.136719 C 115.382812 708.535156 117.4375 706.394531 120.035156 706.339844 L 253.054688 703.542969 C 277.050781 703.039062 296.984375 722.078125 297.484375 745.996094 L 298.296875 784.628906 C 298.351562 787.230469 296.273438 789.386719 293.671875 789.441406 C 293.597656 789.441406 293.5 789.445312 293.398438 789.457031 L 160.511719 792.238281 C 136.613281 792.738281 116.75 773.699219 116.246094 749.78125 L 115.433594 711.136719 Z M 352.382812 701.4375 L 390.503906 700.636719 C 393.09375 700.582031 395.234375 702.648438 395.289062 705.238281 L 396.101562 743.894531 C 396.605469 767.800781 377.574219 787.65625 353.667969 788.160156 L 315.648438 788.945312 C 312.945312 789.003906 310.792969 786.980469 310.738281 784.359375 L 309.925781 745.714844 C 309.425781 721.796875 328.476562 701.9375 352.382812 701.4375 Z M 293.9375 801.902344 L 217.15625 803.515625 C 214.566406 803.570312 212.503906 805.734375 212.558594 808.316406 L 214.183594 885.625 C 214.238281 888.257812 216.40625 890.269531 219.105469 890.214844 L 257.101562 889.425781 C 281.023438 888.925781 300.070312 869.066406 299.570312 845.160156 L 298.757812 806.503906 C 298.703125 803.925781 296.539062 801.847656 293.9375 801.902344 Z M 301.515625 637.792969 C 302.085938 665.082031 280.4375 687.671875 253.140625 688.242188 C 225.855469 688.816406 203.265625 667.160156 202.695312 639.867188 C 202.121094 612.582031 223.777344 589.992188 251.066406 589.421875 C 278.359375 588.847656 300.941406 610.503906 301.515625 637.792969 Z M 301.515625 637.792969 " fill-opacity="1" fill-rule="nonzero"/></g></g></g></svg>
